<?xml version="1.0" standalone="no"?>
<!DOCTYPE svg PUBLIC "-//W3C//DTD SVG 20010904//EN"
 "http://www.w3.org/TR/2001/REC-SVG-20010904/DTD/svg10.dtd">
<svg version="1.0" xmlns="http://www.w3.org/2000/svg"
 width="512.000000pt" height="512.000000pt" viewBox="0 0 512.000000 512.000000"
 preserveAspectRatio="xMidYMid meet">

<g transform="translate(0.000000,512.000000) scale(0.100000,-0.100000)"
fill="#000000" stroke="none">
<path d="M3970 5105 c-310 -57 -570 -248 -706 -517 -41 -80 -43 -121 -10 -150
22 -20 22 -24 10 -63 -7 -23 -15 -68 -19 -99 -7 -52 -10 -58 -41 -71 -19 -8
-38 -25 -43 -38 -10 -26 0 -169 18 -265 51 -264 266 -642 520 -915 42 -46 44
-48 22 -54 -50 -13 -162 -74 -201 -109 -126 -114 -103 -268 55 -363 135 -82
324 -123 560 -123 413 -1 695 132 695 326 0 62 -21 105 -76 156 -42 39 -173
110 -201 110 -25 0 -12 22 57 101 361 409 540 844 500 1211 -45 411 -343 750
-743 849 -107 26 -296 33 -397 14z m285 -709 c179 -83 219 -321 78 -462 -54
-54 -114 -78 -198 -78 -86 0 -146 25 -204 84 -146 150 -80 410 119 471 55 16
153 10 205 -15z m-304 -1664 c118 -109 151 -132 187 -132 34 0 49 11 187 138
75 69 82 73 114 67 99 -19 227 -89 237 -132 19 -76 -194 -165 -431 -181 -274
-18 -543 37 -631 129 -39 41 -26 73 46 117 51 31 154 69 191 71 9 1 54 -34
100 -77z"/>
<path d="M1065 3566 c-466 -77 -851 -405 -999 -851 -79 -238 -79 -530 0 -806
95 -333 321 -709 636 -1060 44 -49 79 -91 77 -94 -2 -2 -42 -17 -88 -34 -248
-91 -366 -247 -301 -398 68 -159 319 -274 682 -313 393 -42 848 61 999 226 67
73 88 176 53 259 -35 86 -158 175 -319 234 l-74 27 67 75 c69 76 214 253 245
299 19 28 22 72 6 98 -9 14 -4 29 27 78 37 60 39 61 74 57 32 -5 40 -1 65 28
43 51 171 320 211 444 20 61 45 148 55 195 26 115 36 342 19 462 -71 527 -469
953 -995 1063 -105 23 -336 28 -440 11z m290 -860 c117 -31 207 -106 259 -216
28 -59 31 -74 31 -165 0 -91 -3 -106 -31 -165 -120 -249 -441 -304 -636 -109
-86 87 -132 225 -109 336 16 79 14 91 -14 119 l-26 26 31 48 c43 67 50 72 89
57 29 -11 38 -9 94 21 116 61 209 76 312 48z m-289 -2221 c123 -111 161 -138
193 -138 33 0 94 47 248 189 l101 94 89 -26 c173 -50 293 -129 293 -194 0 -60
-95 -135 -227 -181 -376 -130 -960 -84 -1184 92 -51 40 -65 78 -45 117 33 65
144 129 291 168 l80 21 36 -31 c21 -17 77 -67 125 -111z"/>
<path d="M3063 2732 c-46 -10 -73 -36 -73 -71 0 -40 29 -72 65 -74 131 -5 178
14 178 72 0 47 -31 73 -90 77 -26 1 -63 -1 -80 -4z"/>
<path d="M2758 2594 c-40 -21 -98 -102 -98 -135 0 -39 32 -69 74 -69 29 0 42
9 85 56 59 65 66 100 26 139 -27 28 -48 31 -87 9z"/>
<path d="M2620 2253 c-39 -14 -50 -36 -50 -98 0 -72 15 -121 40 -135 30 -16
69 -11 91 11 19 19 21 30 17 100 -2 62 -7 83 -23 98 -23 22 -53 32 -75 24z"/>
<path d="M2742 1880 c-35 -33 -29 -79 16 -121 77 -74 110 -84 156 -48 22 17
26 28 24 57 -3 31 -12 44 -63 84 -65 53 -98 60 -133 28z"/>
<path d="M3130 1758 c-70 -26 -67 -112 5 -136 50 -17 140 -9 166 14 26 23 25
85 0 108 -25 23 -124 30 -171 14z"/>
<path d="M3534 1763 c-54 -10 -76 -85 -37 -124 26 -26 114 -35 168 -17 46 15
65 51 49 96 -14 41 -96 62 -180 45z"/>
<path d="M3927 1760 c-56 -17 -75 -77 -38 -117 42 -44 175 -42 211 4 26 33 25
56 -3 88 -18 22 -33 27 -82 30 -33 3 -73 0 -88 -5z"/>
<path d="M4320 1757 c-70 -24 -67 -111 5 -135 54 -18 142 -9 168 17 25 25 25
78 0 102 -24 23 -126 33 -173 16z"/>
<path d="M4671 1654 c-41 -52 -24 -87 67 -145 58 -37 94 -38 121 -3 39 50 27
82 -50 134 -70 48 -108 52 -138 14z"/>
<path d="M4960 1387 c-52 -26 -55 -68 -10 -171 30 -70 97 -80 136 -20 17 25
17 29 -6 95 -31 93 -68 122 -120 96z"/>
<path d="M4991 993 c-26 -22 -57 -137 -47 -176 4 -19 17 -33 38 -41 57 -25 91
1 114 85 19 75 18 96 -11 124 -28 29 -64 32 -94 8z"/>
<path d="M4813 654 c-45 -23 -113 -99 -113 -127 0 -32 40 -67 77 -67 37 0 127
70 141 109 23 65 -41 116 -105 85z"/>
<path d="M4418 491 c-64 -8 -90 -31 -86 -78 5 -59 39 -77 128 -68 84 8 110 27
110 79 0 25 -7 40 -26 55 -27 21 -41 23 -126 12z"/>
<path d="M3190 483 c-52 -20 -68 -85 -30 -123 17 -17 33 -20 100 -20 93 0 120
16 120 73 0 52 -28 71 -108 74 -37 1 -74 0 -82 -4z"/>
<path d="M3573 478 c-48 -23 -51 -103 -4 -127 11 -6 53 -11 94 -11 64 0 76 3
95 23 29 31 28 72 -3 102 -21 22 -33 25 -92 24 -37 0 -78 -5 -90 -11z"/>
<path d="M3955 465 c-14 -13 -25 -36 -25 -50 0 -14 11 -37 25 -50 21 -22 33
-25 94 -25 38 0 77 3 86 6 24 10 46 60 39 89 -10 41 -40 55 -122 55 -64 0 -76
-3 -97 -25z"/>
<path d="M2377 469 c-48 -28 -38 -110 15 -128 71 -25 176 -6 192 34 12 32 6
62 -17 83 -20 19 -35 22 -98 22 -41 0 -82 -5 -92 -11z"/>
<path d="M2760 458 c-26 -28 -26 -68 0 -96 41 -44 168 -42 208 3 27 32 28 55
1 89 -19 24 -26 26 -104 26 -74 0 -87 -3 -105 -22z"/>
</g>
</svg>
